<mxfile host="Electron" modified="2024-06-14T20:58:08.034Z" agent="Mozilla/5.0 (Macintosh; Intel Mac OS X 10_15_7) AppleWebKit/537.36 (KHTML, like Gecko) draw.io/24.5.3 Chrome/124.0.6367.207 Electron/30.0.6 Safari/537.36" etag="1wGjJtQxemUYfyyG1AS7" version="24.5.3" type="device">
  <diagram name="Page-1" id="eU0KkMPPUqVjlpB69Kp9">
    <mxGraphModel dx="896" dy="674" grid="1" gridSize="10" guides="1" tooltips="1" connect="1" arrows="1" fold="1" page="1" pageScale="1" pageWidth="850" pageHeight="1100" math="0" shadow="0">
      <root>
        <mxCell id="0" />
        <mxCell id="1" parent="0" />
        <mxCell id="4_7NIN6JMi3i-Fgv55_A-4" value="" style="edgeStyle=orthogonalEdgeStyle;rounded=0;orthogonalLoop=1;jettySize=auto;html=1;" parent="1" source="4_7NIN6JMi3i-Fgv55_A-1" target="4_7NIN6JMi3i-Fgv55_A-2" edge="1">
          <mxGeometry relative="1" as="geometry" />
        </mxCell>
        <mxCell id="4_7NIN6JMi3i-Fgv55_A-1" value="[a,b]" style="text;html=1;align=center;verticalAlign=middle;whiteSpace=wrap;rounded=0;" parent="1" vertex="1">
          <mxGeometry x="210" y="280" width="60" height="30" as="geometry" />
        </mxCell>
        <mxCell id="4_7NIN6JMi3i-Fgv55_A-5" value="" style="edgeStyle=orthogonalEdgeStyle;rounded=0;orthogonalLoop=1;jettySize=auto;html=1;" parent="1" source="4_7NIN6JMi3i-Fgv55_A-2" target="4_7NIN6JMi3i-Fgv55_A-3" edge="1">
          <mxGeometry relative="1" as="geometry" />
        </mxCell>
        <mxCell id="4_7NIN6JMi3i-Fgv55_A-2" value="operacion" style="rounded=1;whiteSpace=wrap;html=1;" parent="1" vertex="1">
          <mxGeometry x="340" y="265" width="120" height="60" as="geometry" />
        </mxCell>
        <mxCell id="4_7NIN6JMi3i-Fgv55_A-3" value="[resultado]" style="text;html=1;align=center;verticalAlign=middle;whiteSpace=wrap;rounded=0;" parent="1" vertex="1">
          <mxGeometry x="530" y="280" width="60" height="30" as="geometry" />
        </mxCell>
        <mxCell id="eENQ9bw6v7JQWOY0Vdez-2" value="" style="edgeStyle=orthogonalEdgeStyle;rounded=0;orthogonalLoop=1;jettySize=auto;html=1;" edge="1" parent="1" source="eENQ9bw6v7JQWOY0Vdez-1" target="4_7NIN6JMi3i-Fgv55_A-2">
          <mxGeometry relative="1" as="geometry" />
        </mxCell>
        <mxCell id="eENQ9bw6v7JQWOY0Vdez-1" value="+2" style="text;html=1;align=center;verticalAlign=middle;whiteSpace=wrap;rounded=0;" vertex="1" parent="1">
          <mxGeometry x="370" y="370" width="60" height="30" as="geometry" />
        </mxCell>
      </root>
    </mxGraphModel>
  </diagram>
</mxfile>
